<?xml version="1.0" standalone="no"?>
<!DOCTYPE svg PUBLIC "-//W3C//DTD SVG 20010904//EN"
 "http://www.w3.org/TR/2001/REC-SVG-20010904/DTD/svg10.dtd">
<svg version="1.0" xmlns="http://www.w3.org/2000/svg"
 width="1128.000000pt" height="1128.000000pt" viewBox="0 0 1128.000000 1128.000000"
 preserveAspectRatio="xMidYMid meet">
<metadata>
Created by potrace 1.11, written by Peter Selinger 2001-2013
</metadata>
<g transform="translate(0.000000,1128.000000) scale(0.100000,-0.100000)"
fill="#000000" stroke="none">
<path d="M2192 8433 l-2 -433 -42 30 c-60 42 -150 71 -238 77 -60 4 -79 10
-93 27 l-18 21 10 -22 c15 -30 15 -30 -26 -37 -153 -25 -315 -185 -353 -349
-25 -109 -2 -260 53 -351 63 -103 185 -191 302 -217 l54 -12 168 -246 169
-246 -8 -365 c-5 -201 -10 -369 -12 -375 -2 -6 -65 -8 -177 -4 -96 4 -310 10
-476 13 l-303 7 0 -1901 0 -1900 4440 0 4440 0 0 53 c-1 84 -27 258 -56 369
-72 274 -214 547 -421 808 -100 125 -389 413 -532 529 -287 233 -625 450
-1020 654 l-193 100 6 51 c14 124 26 189 56 301 17 66 35 162 40 213 6 51 14
102 20 112 12 22 13 71 2 67 -4 -1 -23 15 -41 36 -18 20 -28 37 -22 37 6 0 24
-15 40 -32 l30 -33 36 20 c54 28 133 119 141 161 10 54 -12 165 -56 283 -42
110 -55 128 -144 189 l-40 27 32 3 c30 3 32 5 32 45 0 23 -4 48 -9 55 -12 19
-57 5 -108 -34 -39 -30 -81 -50 -87 -42 -1 1 -14 23 -28 49 l-27 45 22 33 21
34 -23 18 c-35 29 -56 23 -96 -26 -28 -34 -36 -51 -33 -76 3 -31 2 -32 -58
-49 -99 -27 -132 -53 -170 -135 -69 -149 -104 -293 -90 -367 4 -21 25 -55 56
-88 l50 -54 -6 -63 c-6 -54 -4 -66 11 -76 24 -18 22 -55 -16 -247 -17 -91 -32
-180 -32 -197 -1 -39 -9 -40 -71 -13 -107 46 -463 176 -659 241 -758 252
-1773 485 -2619 600 l-88 12 22 36 c12 20 28 46 36 59 30 47 3 19 -32 -33 -20
-30 -42 -55 -49 -55 -6 0 -73 7 -148 16 l-137 17 -6 51 c-3 28 -6 104 -6 169
l0 118 109 212 c280 547 361 707 357 707 -2 0 -107 -177 -232 -392 l-229 -393
-3 185 -2 185 155 319 c85 176 154 320 153 322 -2 1 -68 -115 -148 -258 -80
-144 -150 -268 -157 -277 -10 -13 -12 52 -13 315 l0 331 141 214 c256 387 256
386 18 89 l-164 -205 -6 210 c-3 116 -8 298 -10 405 -2 107 -6 -59 -9 -369
l-5 -565 -177 255 c-97 140 -184 263 -193 274 -20 24 -25 33 199 -357 l176
-307 -6 -303 c-4 -167 -9 -326 -13 -355 l-6 -52 -194 254 c-106 140 -195 255
-198 255 -2 0 29 -48 70 -107 41 -60 131 -190 201 -291 l126 -184 0 -96 c0
-53 -3 -154 -7 -224 -6 -123 -7 -127 -27 -123 -12 3 -131 16 -266 30 -215 21
-380 35 -762 63 l-97 7 100 165 c56 91 110 180 121 198 11 17 18 32 15 32 -2
0 -62 -88 -133 -195 l-129 -195 -62 0 -63 0 0 326 0 325 235 462 c129 254 235
463 235 466 0 3 -103 -172 -230 -388 -126 -217 -234 -399 -240 -405 -7 -7 -10
46 -10 171 l0 181 126 258 c131 269 170 353 158 342 -3 -4 -69 -119 -145 -255
l-139 -248 0 79 c0 72 2 81 30 116 107 136 127 335 50 495 l-29 60 106 160
c136 205 175 265 169 265 -2 0 -73 -86 -157 -191 -134 -168 -154 -189 -167
-176 -12 13 -16 78 -23 369 -14 554 -15 560 -17 101z m-9 -1458 l-8 -229 -157
206 c-87 114 -158 209 -158 211 0 2 35 7 78 10 64 5 91 13 162 49 l85 43 3
-30 c1 -16 -1 -133 -5 -260z m5817 -1320 c0 -24 -4 -46 -10 -50 -5 -3 -7 -12
-4 -19 3 -8 -3 -16 -15 -19 -32 -8 -36 27 -11 89 26 62 40 62 40 -1z m-476
-159 c-28 -34 -44 -44 -44 -28 0 11 62 74 67 68 3 -3 -7 -21 -23 -40z m175
-558 c-1 -109 -3 -198 -5 -198 -5 0 -157 70 -162 74 -2 2 8 29 22 59 14 29 26
59 26 66 0 7 23 60 51 118 36 73 54 101 60 91 5 -7 8 -102 8 -210z m-6236
-314 c121 -5 147 -9 147 -21 0 -11 -7 -14 -22 -10 -13 3 -103 9 -200 13 -144
6 -178 10 -178 21 0 11 11 13 53 9 28 -3 118 -8 200 -12z m764 -59 c78 -8 149
-15 158 -15 8 0 15 -7 15 -16 0 -10 -6 -14 -17 -10 -10 2 -94 12 -188 21 -93
9 -176 18 -183 21 -27 8 -1 22 36 18 20 -2 101 -11 179 -19z m792 -104 c111
-18 166 -31 169 -40 4 -11 -3 -13 -24 -8 -16 3 -107 18 -201 33 -95 15 -173
31 -173 35 0 14 54 9 229 -20z m833 -163 c100 -22 127 -32 116 -43 -4 -4 -55
4 -115 18 -59 14 -145 34 -190 43 -50 10 -83 22 -83 30 0 12 12 10 272 -48z
m767 -207 c63 -20 117 -43 119 -50 3 -10 0 -12 -14 -7 -11 4 -93 30 -184 57
-204 61 -192 57 -186 68 7 10 78 -8 265 -68z m681 -241 c193 -79 192 -78 185
-90 -6 -10 -368 135 -373 150 -6 17 9 12 188 -60z m603 -276 c128 -65 297
-166 291 -175 -3 -6 -21 -1 -42 12 -21 12 -99 55 -174 96 -76 41 -138 79 -138
84 0 13 5 12 63 -17z m759 -493 c128 -102 175 -147 166 -156 -3 -3 -32 18 -64
47 -33 29 -101 86 -152 127 -50 40 -92 75 -92 77 0 15 35 -9 142 -95z m518
-547 c78 -117 133 -219 127 -237 -2 -6 -26 32 -54 84 -28 52 -76 129 -106 171
-46 65 -57 88 -41 88 2 0 35 -48 74 -106z"/>
<path d="M7813 6491 c-61 -38 -78 -103 -43 -168 l19 -36 10 26 c6 15 21 29 34
32 14 4 29 17 36 31 6 13 16 24 23 24 18 0 130 -68 145 -87 10 -13 15 -14 28
-3 19 16 14 56 -13 121 -21 48 -64 69 -152 76 -43 3 -62 -1 -87 -16z"/>
</g>
</svg>
